<svg width="25" height="24" viewBox="0 0 25 24" fill="none" xmlns="http://www.w3.org/2000/svg">
<path fill-rule="evenodd" clip-rule="evenodd" d="M22.0938 7.89921V16.0502C22.0938 19.0702 20.125 21.2002 16.9792 21.2002H7.96879C4.82296 21.2002 2.86462 19.0702 2.86462 16.0502V7.89921C2.86462 4.87921 4.83337 2.75021 7.96879 2.75021H16.9792C20.125 2.75021 22.0938 4.87921 22.0938 7.89921Z" stroke="#5A5A75" stroke-width="1.5" stroke-linecap="round" stroke-linejoin="round"/>
<path d="M5.50134 16.4309L7.09301 14.8179C7.64613 14.2549 8.56801 14.2279 9.15551 14.7579C9.17322 14.7749 10.1316 15.7099 10.1316 15.7099C10.7097 16.2749 11.6545 16.2839 12.243 15.7299C12.2816 15.6939 14.6743 12.9079 14.6743 12.9079C15.2909 12.1889 16.3982 12.0859 17.1482 12.6789C17.1982 12.7189 19.4586 14.9459 19.4586 14.9459" stroke="#5A5A75" stroke-width="1.5" stroke-linecap="round" stroke-linejoin="round"/>
<path fill-rule="evenodd" clip-rule="evenodd" d="M10.7423 9.13312C10.7423 10.1021 9.92459 10.8871 8.91522 10.8871C7.90584 10.8871 7.08813 10.1021 7.08813 9.13312C7.08813 8.16412 7.90584 7.37912 8.91522 7.37912C9.92459 7.38012 10.7423 8.16412 10.7423 9.13312Z" stroke="#5A5A75" stroke-width="1.5" stroke-linecap="round" stroke-linejoin="round"/>
</svg>
