<svg width="25" height="25" viewBox="0 0 25 25" fill="none" xmlns="http://www.w3.org/2000/svg">
<path d="M17.7081 2.08315C19.0883 2.08727 20.4108 2.63737 21.3867 3.61329C22.3626 4.58922 22.9127 5.91169 22.9169 7.29185V17.7081C22.9127 19.0883 22.3626 20.4108 21.3867 21.3867C20.4108 22.3626 19.0883 22.9127 17.7081 22.9169H7.29185C5.91169 22.9127 4.58922 22.3626 3.61329 21.3867C2.63737 20.4108 2.08727 19.0883 2.08315 17.7081V7.29185C2.08727 5.91169 2.63737 4.58922 3.61329 3.61329C4.58922 2.63737 5.91169 2.08727 7.29185 2.08315H17.7081ZM17.7081 0H7.29185C3.28125 0 0 3.28125 0 7.29185V17.7081C0 21.7188 3.28125 25 7.29185 25H17.7081C21.7188 25 25 21.7188 25 17.7081V7.29185C25 3.28125 21.7188 0 17.7081 0Z" fill="#24243F"/>
<path d="M19.2706 7.29184C18.9616 7.29184 18.6595 7.2002 18.4026 7.02851C18.1456 6.85682 17.9453 6.61279 17.8271 6.32728C17.7088 6.04177 17.6779 5.72761 17.7382 5.42451C17.7985 5.12142 17.9473 4.84301 18.1658 4.62449C18.3843 4.40597 18.6627 4.25715 18.9658 4.19686C19.2689 4.13657 19.5831 4.16752 19.8686 4.28578C20.1541 4.40404 20.3981 4.60431 20.5698 4.86126C20.7415 5.11821 20.8331 5.42031 20.8331 5.72934C20.8336 5.93465 20.7935 6.13803 20.7151 6.3278C20.6367 6.51758 20.5217 6.69 20.3765 6.83518C20.2313 6.98036 20.0589 7.09543 19.8691 7.1738C19.6793 7.25217 19.476 7.29228 19.2706 7.29184Z" fill="#24243F"/>
<path d="M12.5 8.33315C13.3241 8.33315 14.1297 8.57753 14.815 9.03539C15.5002 9.49325 16.0343 10.144 16.3497 10.9054C16.6651 11.6668 16.7476 12.5046 16.5868 13.3129C16.426 14.1212 16.0292 14.8637 15.4464 15.4464C14.8637 16.0292 14.1212 16.426 13.3129 16.5868C12.5046 16.7476 11.6668 16.665 10.9054 16.3497C10.144 16.0343 9.49325 15.5002 9.03539 14.815C8.57753 14.1297 8.33315 13.3241 8.33315 12.5C8.33433 11.3952 8.77372 10.3361 9.5549 9.5549C10.3361 8.77372 11.3952 8.33433 12.5 8.33315ZM12.5 6.25C11.2639 6.25 10.0555 6.61656 9.02769 7.30331C7.99988 7.99007 7.1988 8.96619 6.72576 10.1082C6.25271 11.2503 6.12894 12.5069 6.37009 13.7193C6.61125 14.9317 7.20651 16.0453 8.08059 16.9194C8.95466 17.7935 10.0683 18.3888 11.2807 18.6299C12.4931 18.8711 13.7497 18.7473 14.8918 18.2742C16.0338 17.8012 17.0099 17.0001 17.6967 15.9723C18.3834 14.9445 18.75 13.7361 18.75 12.5C18.75 10.8424 18.0915 9.25269 16.9194 8.08058C15.7473 6.90848 14.1576 6.25 12.5 6.25Z" fill="#24243F"/>
</svg>
